<?xml version="1.0" encoding="utf-8"?>
<!-- Generator: Adobe Illustrator 16.0.0, SVG Export Plug-In . SVG Version: 6.00 Build 0)  -->
<!DOCTYPE svg PUBLIC "-//W3C//DTD SVG 1.1//EN" "http://www.w3.org/Graphics/SVG/1.1/DTD/svg11.dtd">
<svg version="1.1" id="Layer_1" xmlns="http://www.w3.org/2000/svg" xmlns:xlink="http://www.w3.org/1999/xlink" x="0px" y="0px"
	 width="400px" height="400px" viewBox="0 0 400 400" enable-background="new 0 0 400 400" xml:space="preserve">
<g>
	<g>
		<path d="M83.842,28.658c-7.17,1.156-14.035,3.562-21.125,5.078c-6.678,1.428-12.894,3.664-18.949,6.813
			c-9.965,5.182-18.778,12.8-22.333,23.733c-4.147,12.757-1.122,28.504,0.864,41.409c1.663,10.802,4.118,25.873,13.926,32.608
			c4.257,2.923,9.414,4.263,14.292,5.771c7.582,2.343,15.492,3.579,23.337,4.646c14.933,2.031,29.977,3.792,45.033,4.542
			c7.583,0.378,15.179,0.38,22.763,0.052c6.17-0.268,13.173-0.203,19.004-2.474c4.847-1.889,7.2-6.584,9.293-11.005
			c3.131-6.614,6.498-12.987,9.085-19.856c5.009-13.302,7.454-27.74,6.051-41.924c-1.187-12.009-4.7-24.533-14.074-32.699
			c-9.841-8.573-25.455-11.536-37.868-13.771c-7.527-1.356-15.119-1.439-22.741-1.595c-4.618-0.094-9.343-0.038-13.924-0.68
			c-3.556-0.498-6.937-1.339-10.548-1.346c-3.225-0.006-3.224,4.994,0,5c6.875,0.014,13.787,1.725,20.728,1.937
			c8.434,0.257,16.801,0.147,25.156,1.506c12.627,2.053,28.304,5.35,37.833,14.469c8.802,8.425,10.768,23.487,10.88,35.043
			c0.153,15.788-4.918,31.341-11.801,45.374c-2.835,5.781-5.283,13.673-12.031,15.615c-6.944,1.998-15.433,1.512-22.588,1.632
			c-15.7,0.264-31.283-1.38-46.85-3.195c-14.976-1.746-29.752-3.682-43.978-8.919c-13.339-4.912-15.221-24.508-16.825-36.547
			c-1.186-8.901-2.02-17.848-1.427-26.83c0.58-8.79,4.361-15.598,10.902-21.356c6.086-5.358,14.017-9.136,21.683-11.539
			c8.806-2.759,18.454-5.2,27.561-6.669C88.348,32.967,86.995,28.149,83.842,28.658L83.842,28.658z"/>
	</g>
</g>
</svg>
