<?xml version="1.0" encoding="utf-8"?>
<!-- Generator: Adobe Illustrator 16.0.0, SVG Export Plug-In . SVG Version: 6.00 Build 0)  -->
<!DOCTYPE svg PUBLIC "-//W3C//DTD SVG 1.1//EN" "http://www.w3.org/Graphics/SVG/1.1/DTD/svg11.dtd">
<svg version="1.1" id="Layer_1" xmlns="http://www.w3.org/2000/svg" xmlns:xlink="http://www.w3.org/1999/xlink" x="0px" y="0px"
	 width="841.89px" height="595.281px" viewBox="0 0 841.89 595.281" enable-background="new 0 0 841.89 595.281"
	 xml:space="preserve">
<g>
	<g>
		<path fill="#151516" d="M433.82,442.64c-2.091,0-4.182,0-6.273,0c-0.433-0.752-1.276-0.637-1.932-0.834
			c-8.146-2.455-12.854-8.699-12.855-17.137c0-5.225,0.013-10.451-0.02-15.678c-0.004-0.52,0.352-1.18-0.328-1.592
			c-4.619,3.438-9.787,4.646-15.386,3.633c-8.241-1.492-15.448-8.186-14.757-18.529c0.15-2.236,0.021-4.494,0.021-7.021
			c-6.321,5.42-13.06,7.09-20.449,4.227c-7.588-2.941-11.643-8.598-11.457-17.148c-0.793,0.396-1.365,0.703-1.956,0.971
			c-3.567,1.605-7.271,1.949-11.097,1.193c-8.221-1.627-12.569-9.674-12.769-17.26c-0.347-13.207-0.069-26.428-0.262-39.641
			c-0.046-3.187,0.247-6.453-0.704-9.598c0-10.307,0-20.611,0-30.916c0.859-0.752,0.355-1.792,0.544-2.686
			c2.772-13.185,5.498-26.377,8.237-39.568c3.642-17.54,7.27-35.082,10.938-52.615c0.883-4.219,0.989-8.797,4.971-11.714
			c0.84,0.112,1.471-0.467,2.217-0.665c2.084-0.097,4.166-0.194,6.248-0.291c7.623-0.038,15.244-0.076,22.867-0.113
			c10.748-0.11,21.496-0.222,32.244-0.333c4.404,0.004,8.807,0.015,13.211,0.009c5.129-0.006,7.678,1.872,9.137,6.794
			c1.545,5.212,2.972,10.464,4.637,15.637c1.205,3.743,1.818,7.681,3.792,11.179c10.216,18.116,20.397,36.251,30.595,54.377
			c0.732,1.304,1.385,2.63,1.797,4.079c6.264,21.991,12.418,44.016,18.883,65.947c2.219,7.533,2.082,14.496-2.369,21.135
			c-6.52,6.105-14.277,7.387-22.637,5.355c-4.627-1.125-7.85-4.566-10.875-8.072c-1.076-2.643-2.152-5.283-3.23-7.926
			c-1.604-4.07-3.206-8.141-4.809-12.209c-0.152-0.723-0.26-1.469-0.939-2.068c0,3.521,0,6.861,0,10.203
			c0.037,12.252,0.074,24.504,0.113,36.756c0.109,15.977,0.222,31.951,0.332,47.928c-0.002,2.688-0.004,5.373-0.008,8.061
			c-0.063,0.656-0.127,1.313-0.191,1.967c-1.002,4.254-3.409,7.625-6.584,10.516C439.946,440.679,436.905,441.712,433.82,442.64z
			 M441.602,365.097c-0.204,0-0.409,0-0.613,0c0-20.084-0.001-40.167,0.001-60.252c0-3.135,1.18-4.774,3.723-5.195
			c2.783-0.459,3.99,0.377,5.215,3.583c4.468,11.706,8.943,23.409,13.41,35.116c2.543,6.662,7.07,9.365,14.078,8.391
			c6.496-0.9,8.932-2.727,9.986-7.775c0.521-2.502,0.352-5.043-0.361-7.523c-5.348-18.618-10.648-37.249-16.068-55.845
			c-1.449-4.968-2.164-10.216-4.719-14.794c-10.021-17.967-20.143-35.877-30.235-53.804c-0.948-1.684-1.767-3.39-2.308-5.277
			c-2.162-7.561-4.483-15.079-6.657-22.637c-0.433-1.504-1.021-2.081-2.718-2.059c-22.172,0.286-44.346,0.47-66.521,0.692
			c-5.776,0.057-5.692,0.093-6.885,5.871c-4.972,24.097-9.892,48.207-15.046,72.264c-2.672,12.479-4.995,24.899-4.467,37.798
			c0.847,20.663,0.838,41.35,0.688,62.033c-0.022,3.162,1.045,5.971,2.62,8.613c0.9,1.51,2.188,2.76,3.972,3.025
			c5.954,0.893,10.938-1.602,11.335-8.23c0.672-11.254,0.209-22.537,0.194-33.809c-0.003-1.98,0.774-3.088,2.55-3.638
			c3.153-0.974,5.319,0.61,5.321,3.921c0.009,15.828,0,31.658,0.015,47.486c0,0.961,0.024,1.955,0.258,2.877
			c1.267,4.99,6.2,7.906,12.047,7.188c5.396-0.66,8.851-4.355,8.867-9.662c0.036-12.693,0.021-25.389-0.007-38.08
			c-0.002-1.16-0.009-2.289,0.935-3.08c2.125-1.779,4.551-2.099,7.127-1.201c2.316,0.807,2.64,2.66,2.635,4.854
			c-0.045,19.188-0.033,38.377-0.021,57.564c0.004,5.992,4.385,10.148,10.633,10.148c6.291-0.004,10.526-4.07,10.574-10.156
			c0.008-1.045,0-2.092,0-3.137c0-19.113,0.019-38.229-0.022-57.342c-0.005-2.141,0.442-3.798,2.647-4.619
			c3.01-1.121,6.768,0.168,6.743,4.699c-0.157,30.461-0.085,60.926-0.079,91.389c0.002,6.17,4.377,10.521,10.637,10.408
			c5.541-0.104,10.652-3.691,10.586-10.447C441.478,404.671,441.602,384.882,441.602,365.097z"/>
		<path fill="#D1D3D4" d="M351.923,163.128c0.295-3.724,2.979-6.203,6.676-6.43c1.173-0.072,2.693,0.861,3.531-0.812
			c2.839,0,5.676,0,8.515,0c0.481,0.686,1.209,0.445,1.843,0.446c8.174,0.007,16.346-0.001,24.52-0.021
			c0.64-0.001,1.359,0.216,1.865-0.424c12.844,0,25.688,0,38.532,0c4.568,2.125,5.414,6.56,6.647,10.745
			c1.849,6.272,3.648,12.558,5.525,18.822c1.559,5.201,4.789,9.566,7.362,14.247c5.597,10.181,11.394,20.25,17.106,30.366
			c3.076,5.447,6.195,10.871,9.209,16.353c1.775,3.227,2.338,6.89,3.348,10.377c5.305,18.342,10.52,36.711,15.723,55.082
			c0.969,3.427,2.189,6.791,2.764,10.322c0.084,0.51,0.318,0.819,0.867,0.812c0,0.299,0,0.597,0,0.896
			c-0.689,1.194-0.686,2.391,0,3.586c0,0.447,0,0.896,0,1.344c-1.037,0.039-0.748,0.875-0.926,1.473
			c-0.795,2.666-1.262,5.502-3.615,7.41c0.623-3.994,0.945-7.992-0.17-11.953c-1.09-3.867-2.27-7.708-3.373-11.571
			c-4.352-15.231-8.582-30.499-13.078-45.688c-1.787-6.041-2.752-12.375-5.939-17.963c-3.064-5.371-6.109-10.754-9.148-16.14
			c-5.75-10.187-11.543-20.351-17.209-30.583c-2.303-4.157-5.109-8.062-6.447-12.728c-2.107-7.366-4.354-14.692-6.444-22.064
			c-1.491-5.261-4.022-7.311-9.444-7.291c-7.232,0.025-14.461,0.203-21.688,0.316c-16.046,0.25-32.099,0.131-48.148,0.153
			C357.488,162.208,354.688,162.488,351.923,163.128z"/>
		<path fill="#FEFEFE" d="M398.873,155.886c-0.506,0.64-1.226,0.423-1.865,0.424c-8.172,0.021-16.346,0.029-24.52,0.021
			c-0.634,0-1.361,0.24-1.843-0.446C380.054,155.886,389.462,155.886,398.873,155.886z"/>
		<path fill="#FFFFFF" d="M505.957,327.492c-0.686-1.195-0.689-2.392,0-3.586C505.957,325.101,505.957,326.296,505.957,327.492z"/>
		<path fill="#FBF3DB" d="M441.602,365.097c0,19.785-0.124,39.574,0.069,59.357c0.065,6.756-5.045,10.346-10.588,10.447
			c-6.26,0.113-10.635-4.238-10.635-10.408c-0.007-30.463-0.078-60.928,0.078-91.391c0.023-4.529-3.732-5.818-6.742-4.697
			c-2.205,0.821-2.654,2.479-2.648,4.619c0.041,19.113,0.023,38.229,0.023,57.342c0,1.045,0.006,2.092-0.002,3.137
			c-0.046,6.086-4.283,10.152-10.574,10.156c-6.248,0-10.629-4.156-10.631-10.148c-0.013-19.188-0.024-38.377,0.021-57.564
			c0.005-2.193-0.317-4.047-2.636-4.854c-2.576-0.897-5.002-0.578-7.125,1.201c-0.943,0.791-0.938,1.92-0.936,3.08
			c0.029,12.691,0.043,25.387,0.006,38.08c-0.016,5.307-3.47,9.002-8.867,9.662c-5.847,0.719-10.781-2.197-12.045-7.188
			c-0.234-0.922-0.258-1.916-0.259-2.877c-0.015-15.828-0.006-31.658-0.015-47.486c-0.002-3.311-2.168-4.895-5.321-3.921
			c-1.774,0.549-2.553,1.655-2.55,3.638c0.016,11.271,0.477,22.555-0.195,33.809c-0.396,6.629-5.381,9.123-11.334,8.23
			c-1.783-0.268-3.07-1.518-3.972-3.025c-1.575-2.645-2.644-5.451-2.62-8.613c0.148-20.684,0.158-41.37-0.689-62.033
			c-0.527-12.898,1.795-25.32,4.469-37.798c5.154-24.058,10.074-48.167,15.045-72.264c1.191-5.778,1.109-5.814,6.885-5.871
			c22.174-0.222,44.35-0.406,66.521-0.692c1.697-0.022,2.285,0.554,2.717,2.059c2.174,7.558,4.494,15.076,6.658,22.637
			c0.539,1.887,1.358,3.593,2.307,5.277c10.093,17.927,20.215,35.837,30.236,53.804c2.555,4.578,3.27,9.826,4.717,14.794
			c5.42,18.596,10.723,37.227,16.068,55.845c0.713,2.48,0.885,5.021,0.363,7.523c-1.057,5.051-3.49,6.875-9.988,7.775
			c-7.008,0.975-11.533-1.729-14.078-8.391c-4.467-11.707-8.941-23.41-13.41-35.116c-1.223-3.206-2.432-4.042-5.215-3.583
			c-2.543,0.421-3.722,2.061-3.722,5.195c-0.002,20.084-0.001,40.168-0.001,60.252C441.193,365.097,441.397,365.097,441.602,365.097
			z"/>
		<path fill="#A7A9AC" d="M351.923,163.128c2.764-0.64,5.564-0.92,8.4-0.924c16.049-0.022,32.102,0.097,48.147-0.153
			c7.228-0.113,14.457-0.291,21.688-0.316c5.422-0.02,7.953,2.03,9.444,7.291c2.09,7.372,4.337,14.699,6.444,22.064
			c1.336,4.667,4.145,8.571,6.447,12.728c5.666,10.233,11.459,20.396,17.209,30.583c3.039,5.386,6.084,10.769,9.148,16.14
			c3.188,5.588,4.152,11.924,5.939,17.963c4.496,15.189,8.729,30.457,13.078,45.688c1.104,3.863,2.283,7.704,3.373,11.571
			c1.115,3.96,0.793,7.959,0.17,11.953c-1.314,2.969-2.549,5.982-5.098,8.186c-1.402,1.209-2.834,2.359-4.771,2.576
			c4.449-6.637,4.588-13.6,2.367-21.135c-6.463-21.932-12.617-43.955-18.881-65.946c-0.412-1.448-1.064-2.774-1.797-4.079
			c-10.199-18.126-20.38-36.262-30.596-54.377c-1.973-3.498-2.587-7.436-3.792-11.179c-1.666-5.173-3.093-10.425-4.638-15.637
			c-1.459-4.922-4.008-6.8-9.137-6.794c-4.404,0.006-8.807-0.005-13.209-0.009c-0.363-0.496-0.902-0.446-1.418-0.446
			c-9.742,0.001-19.484,0.001-29.228,0.01c-0.64,0.001-1.403-0.185-1.599,0.769c-7.623,0.038-15.244,0.076-22.867,0.113
			c-2.112-0.559-4.225-1.087-6.248,0.291c-0.745,0.198-1.377,0.777-2.217,0.665C347.736,167.349,349.722,165.187,351.923,163.128z"
			/>
		<path fill="#A6A9AB" d="M454.652,427.087c-1.751,5.014-4.749,8.965-9.646,11.279c-0.715,0.34-1.407,0.854-2.289,0.621
			c3.176-2.891,5.584-6.262,6.586-10.516c0.742-0.59,0.951-1.23,0.191-1.965c0.002-2.688,0.004-5.375,0.008-8.063
			c0.645-0.502,0.444-1.219,0.444-1.863c0.007-14.748,0.007-29.494-0.011-44.242c-0.001-0.68,0.322-1.568-0.768-1.82
			c-0.037-12.252-0.076-24.504-0.112-36.756c0.839-0.877,0.327-1.959,0.44-2.942c0.197-1.728-0.412-3.532,0.5-5.192
			c1.603,4.069,3.205,8.139,4.81,12.209c-0.333,0.248-0.401,0.604-0.394,0.988c0.27,12.438,0.064,24.877,0.301,37.32
			C455.033,393.119,455.167,410.109,454.652,427.087z"/>
		<path fill="#D1D3D4" d="M454.652,427.087c0.516-16.979,0.381-33.969,0.061-50.939c-0.236-12.443-0.031-24.885-0.301-37.322
			c-0.009-0.385,0.06-0.738,0.394-0.986c1.077,2.643,2.153,5.283,3.229,7.926c0.008,16.016-0.223,32.035,0.125,48.043
			c0.166,7.662,0.143,15.324,0.272,22.984c0.058,3.316-0.776,6.469-2.642,9.287C455.494,426.529,455.184,426.923,454.652,427.087z"
			/>
		<path fill="#B5B7BA" d="M449.167,370.519c1.09,0.254,0.767,1.143,0.768,1.82c0.018,14.748,0.018,29.496,0.011,44.244
			c0,0.645,0.2,1.361-0.444,1.863C449.39,402.47,449.278,386.496,449.167,370.519z"/>
		<path fill="#B5B7B9" d="M379.619,169.657c0.196-0.954,0.959-0.768,1.6-0.769c9.742-0.009,19.484-0.009,29.227-0.01
			c0.518,0,1.057-0.05,1.418,0.446C401.117,169.435,390.369,169.547,379.619,169.657z"/>
		<path fill="#B7B9BB" d="M449.996,325.628c-0.912,1.662-0.302,3.467-0.5,5.192c-0.113,0.983,0.398,2.065-0.44,2.942
			c0-3.342,0-6.682,0-10.203C449.736,324.16,449.841,324.906,449.996,325.628z"/>
		<path fill="#B6B8BA" d="M350.505,170.062c2.022-1.378,4.135-0.85,6.248-0.291C354.669,169.867,352.587,169.964,350.505,170.062z"
			/>
	</g>
	<path fill="#B5B7BA" d="M435.494,504.507c0.76,0.734,0.551,1.377-0.191,1.967C435.365,505.82,435.428,505.164,435.494,504.507z"/>
</g>
</svg>
